{
  "accessors": [
    {
      "bufferView": 2,
      "componentType": 5126,
      "count": 65532,
      "max": [
        2.4656417369842529,
        2.5688049793243408,
        5.8886547088623047
      ],
      "min": [
        -1.6911677122116089,
        -2.3079471588134766,
        2.5229382514953613
      ],
      "type": "VEC3"
    },
    {
      "bufferView": 2,
      "byteOffset": 786384,
      "componentType": 5126,
      "count": 65532,
      "max": [
        0.99999517202377319,
        0.99988514184951782,
        0.997447669506073
      ],
      "min": [
        -0.99921256303787231,
        -0.99996507167816162,
        -1
      ],
      "type": "VEC3"
    },
    {
      "bufferView": 3,
      "componentType": 5126,
      "count": 65532,
      "max": [
        0.9999692440032959,
        0.9999995231628418,
        0.99996423721313477,
        1
      ],
      "min": [
        -0.99998360872268677,
        -0.99992573261260986,
        -0.99999523162841797,
        -1
      ],
      "type": "VEC4"
    },
    {
      "bufferView": 3,
      "byteOffset": 1048512,
      "componentType": 5126,
      "count": 65532,
      "max": [
        0.9490196704864502,
        0.89019614458084106,
        0.85490202903747559,
        1
      ],
      "min": [
        0.019607843831181526,
        0.015686275437474251,
        0.0078431377187371254,
        1
      ],
      "type": "VEC4"
    },
    {
      "bufferView": 1,
      "componentType": 5126,
      "count": 65532,
      "max": [
        0.98581278324127197,
        0.99952709674835205
      ],
      "min": [
        0.0033315059263259172,
        0.0036105371546000242
      ],
      "type": "VEC2"
    },
    {
      "bufferView": 0,
      "componentType": 5125,
      "count": 358926,
      "max": [
        65531
      ],
      "min": [
        0
      ],
      "type": "SCALAR"
    },
    {
      "bufferView": 2,
      "byteOffset": 1572768,
      "componentType": 5126,
      "count": 7869,
      "max": [
        2.2196805477142334,
        2.7904767990112305,
        4.2603592872619629
      ],
      "min": [
        0.55937671661376953,
        0.46036693453788757,
        2.5229382514953613
      ],
      "type": "VEC3"
    },
    {
      "bufferView": 2,
      "byteOffset": 1667196,
      "componentType": 5126,
      "count": 7869,
      "max": [
        0.99919044971466064,
        0.99484384059906006,
        0.99280685186386108
      ],
      "min": [
        -0.99162232875823975,
        -0.99994450807571411,
        -0.99997818470001221
      ],
      "type": "VEC3"
    },
    {
      "bufferView": 3,
      "byteOffset": 2097024,
      "componentType": 5126,
      "count": 7869,
      "max": [
        0.99970215559005737,
        0.99973481893539429,
        0.99929332733154297,
        1
      ],
      "min": [
        -0.99979138374328613,
        -0.99996316432952881,
        -0.99982863664627075,
        -1
      ],
      "type": "VEC4"
    },
    {
      "bufferView": 3,
      "byteOffset": 2222928,
      "componentType": 5126,
      "count": 7869,
      "max": [
        0.92941182851791382,
        0.85882359743118286,
        0.85490202903747559,
        1
      ],
      "min": [
        0.031372550874948502,
        0.035294119268655777,
        0.023529414087533951,
        1
      ],
      "type": "VEC4"
    },
    {
      "bufferView": 1,
      "byteOffset": 524256,
      "componentType": 5126,
      "count": 7869,
      "max": [
        0.9777405858039856,
        0.99954819679260254
      ],
      "min": [
        0.0035958818625658751,
        0.1707378476858139
      ],
      "type": "VEC2"
    },
    {
      "bufferView": 0,
      "byteOffset": 1435704,
      "componentType": 5125,
      "count": 34749,
      "max": [
        7868
      ],
      "min": [
        0
      ],
      "type": "SCALAR"
    }
  ],
  "asset": {
    "extras": {
      "author": "Robert Mahon (https://sketchfab.com/rmahon1)",
      "license": "CC-BY-4.0 (http://creativecommons.org/licenses/by/4.0/)",
      "source": "https://sketchfab.com/models/1b9843575baf4e67977027abbdc516fa",
      "title": "William Shakespeare"
    },
    "generator": "Sketchfab-3.20.7",
    "version": "2.0"
  },
  "bufferViews": [
    {
      "buffer": 0,
      "byteLength": 1574700,
      "byteOffset": 0,
      "name": "floatBufferViews",
      "target": 34963
    },
    {
      "buffer": 0,
      "byteLength": 587208,
      "byteOffset": 1574700,
      "byteStride": 8,
      "name": "floatBufferViews",
      "target": 34962
    },
    {
      "buffer": 0,
      "byteLength": 1761624,
      "byteOffset": 2161908,
      "byteStride": 12,
      "name": "floatBufferViews",
      "target": 34962
    },
    {
      "buffer": 0,
      "byteLength": 2348832,
      "byteOffset": 3923532,
      "byteStride": 16,
      "name": "floatBufferViews",
      "target": 34962
    }
  ],
  "buffers": [
    {
      "byteLength": 6272364,
      "uri": "scene.bin"
    }
  ],
  "extensionsUsed": [
    "KHR_materials_unlit"
  ],
  "images": [
    {
      "uri": "textures/material0_baseColor.jpeg"
    }
  ],
  "materials": [
    {
      "doubleSided": true,
      "emissiveFactor": [
        0,
        0,
        0
      ],
      "extensions": {
        "KHR_materials_unlit": {}
      },
      "name": "material0",
      "pbrMetallicRoughness": {
        "baseColorFactor": [
          0.52000000000000002,
          0.52000000000000002,
          0.52000000000000002,
          1
        ],
        "baseColorTexture": {
          "index": 0,
          "texCoord": 0
        },
        "metallicFactor": 0,
        "roughnessFactor": 1
      }
    }
  ],
  "meshes": [
    {
      "primitives": [
        {
          "attributes": {
            "COLOR_0": 3,
            "NORMAL": 1,
            "POSITION": 0,
            "TANGENT": 2,
            "TEXCOORD_0": 4
          },
          "indices": 5,
          "material": 0,
          "mode": 4
        }
      ]
    },
    {
      "primitives": [
        {
          "attributes": {
            "COLOR_0": 9,
            "NORMAL": 7,
            "POSITION": 6,
            "TANGENT": 8,
            "TEXCOORD_0": 10
          },
          "indices": 11,
          "material": 0,
          "mode": 4
        }
      ]
    }
  ],
  "nodes": [
    {
      "children": [
        1
      ],
      "name": "RootNode (gltf orientation matrix)",
      "rotation": [
        -0.70710678118654746,
        -0,
        -0,
        0.70710678118654757
      ]
    },
    {
      "children": [
        2
      ],
      "matrix": [
        0,
        -1,
        0,
        0,
        -1,
        0,
        0,
        0,
        0,
        0,
        -1,
        0,
        -3.8185632228851318,
        -3.8185632228851318,
        0.48578166961669922,
        1
      ],
      "name": "RootNode (model correction matrix)"
    },
    {
      "children": [
        3
      ],
      "matrix": [
        1,
        0,
        0,
        0,
        0,
        0,
        1,
        0,
        0,
        -1,
        0,
        0,
        0,
        0,
        0,
        1
      ],
      "name": "Shakespeare.fbx"
    },
    {
      "children": [
        4
      ],
      "name": ""
    },
    {
      "children": [
        5,
        7,
        9,
        11,
        13,
        15,
        17,
        19,
        21
      ],
      "name": "RootNode"
    },
    {
      "children": [
        6
      ],
      "name": "DSC07914.JPG",
      "rotation": [
        0.17240950465202332,
        0.10027549415826797,
        0.97977918386459351,
        0.015891902148723602
      ],
      "translation": [
        6.7840666770935059,
        0.19486725330352783,
        2.7054998874664307
      ]
    },
    {
      "name": ""
    },
    {
      "children": [
        8
      ],
      "name": "DSC07915.JPG",
      "rotation": [
        0.51253849267959595,
        0.068188920617103577,
        0.85477936267852783,
        0.044797696173191071
      ],
      "translation": [
        3.1758594512939453,
        -0.6206391453742981,
        -0.4145757257938385
      ]
    },
    {
      "name": ""
    },
    {
      "children": [
        10
      ],
      "name": "DSC07916.JPG",
      "rotation": [
        0.64402949810028076,
        0.056906819343566895,
        0.7616342306137085,
        0.043599516153335571
      ],
      "translation": [
        1.1166894435882568,
        -0.74579030275344849,
        -1.1623120307922363
      ]
    },
    {
      "name": ""
    },
    {
      "children": [
        12
      ],
      "name": "DSC07917.JPG",
      "rotation": [
        0.7075192928314209,
        0.00041196506936103106,
        0.70669382810592651,
        -0.00039142678724601865
      ],
      "translation": [
        -0.011925020255148411,
        0.0022173437755554914,
        0.011987135745584965
      ]
    },
    {
      "name": ""
    },
    {
      "children": [
        14
      ],
      "name": "DSC07918.JPG",
      "rotation": [
        0.77103865146636963,
        -0.041284799575805664,
        0.63520580530166626,
        0.017564909532666206
      ],
      "translation": [
        -0.70302468538284302,
        -0.029167382046580315,
        0.69478046894073486
      ]
    },
    {
      "name": ""
    },
    {
      "children": [
        16
      ],
      "name": "DSC07919.JPG",
      "rotation": [
        0.55523967742919922,
        0.25928515195846558,
        0.78407597541809082,
        0.098514921963214874
      ],
      "translation": [
        1.9343661069869995,
        -2.6499524116516113,
        0.49426233768463135
      ]
    },
    {
      "name": ""
    },
    {
      "children": [
        18
      ],
      "name": "DSC07920.JPG",
      "rotation": [
        0.12116478383541107,
        0.046952322125434875,
        0.98404985666275024,
        0.12149340659379959
      ],
      "translation": [
        5.33599853515625,
        -1.3654066324234009,
        3.9503934383392334
      ]
    },
    {
      "name": ""
    },
    {
      "children": [
        20
      ],
      "name": "DSC07921.JPG",
      "rotation": [
        -0.083154760301113129,
        0.11549429595470428,
        0.98975849151611328,
        -0.01115739718079567
      ],
      "translation": [
        4.6586012840270996,
        0.29561197757720947,
        5.5429563522338867
      ]
    },
    {
      "name": ""
    },
    {
      "children": [
        22,
        23
      ],
      "name": "Model"
    },
    {
      "mesh": 0,
      "name": ""
    },
    {
      "mesh": 1,
      "name": ""
    }
  ],
  "samplers": [
    {
      "magFilter": 9729,
      "minFilter": 9987,
      "wrapS": 10497,
      "wrapT": 10497
    }
  ],
  "scene": 0,
  "scenes": [
    {
      "name": "OSG_Scene",
      "nodes": [
        0
      ]
    }
  ],
  "textures": [
    {
      "sampler": 0,
      "source": 0
    }
  ]
}

